<svg width="24" height="24" viewBox="0 0 24 24" fill="none" xmlns="http://www.w3.org/2000/svg">
<path d="M9.602 21.0259V13.7519H6.818C6.67346 13.7519 6.53484 13.6945 6.43263 13.5923C6.33042 13.4901 6.273 13.3515 6.273 13.2069L6.273 10.3299C6.273 10.1854 6.33042 10.0468 6.43263 9.94458C6.53484 9.84237 6.67346 9.78495 6.818 9.78495H9.591V6.99995C9.52467 6.3395 9.60373 5.67254 9.82265 5.04591C10.0416 4.41927 10.395 3.84817 10.8582 3.37271C11.3214 2.89724 11.883 2.52895 12.5037 2.2937C13.1244 2.05844 13.789 1.96193 14.451 2.01095L16.771 2.01095C16.9169 2.01066 17.0571 2.06775 17.1613 2.1699C17.2655 2.27204 17.3254 2.41106 17.328 2.55695V4.99295C17.3249 5.13859 17.2648 5.2772 17.1607 5.37907C17.0566 5.48095 16.9167 5.53798 16.771 5.53795L15.321 5.53795C13.755 5.53795 13.454 6.27995 13.454 7.37095L13.454 9.78395L17.177 9.78395C17.2544 9.78139 17.3314 9.79571 17.4027 9.82592C17.4739 9.85614 17.5378 9.90152 17.5898 9.95891C17.6417 10.0163 17.6806 10.0843 17.7036 10.1582C17.7266 10.2322 17.7332 10.3102 17.723 10.3869L17.386 13.2749C17.3691 13.4072 17.3043 13.5287 17.2039 13.6164C17.1035 13.7042 16.9743 13.752 16.841 13.7509H13.477V21.025C13.4789 21.1535 13.455 21.281 13.4066 21.4001C13.3583 21.5192 13.2865 21.6274 13.1956 21.7182C13.1047 21.8091 12.9964 21.8807 12.8773 21.9289C12.7581 21.9772 12.6305 22.001 12.502 21.999H10.565C10.4375 21.9994 10.3112 21.9744 10.1934 21.9254C10.0757 21.8765 9.96888 21.8046 9.87923 21.7139C9.78959 21.6232 9.7189 21.5156 9.6713 21.3973C9.6237 21.279 9.60014 21.1534 9.602 21.0259Z" fill="#E5E3DC"/>
</svg>
