<svg width="183" height="195" viewBox="0 0 183 195" fill="none" xmlns="http://www.w3.org/2000/svg">
<g opacity="0.75">
<path d="M167.358 60.4742C173.646 75.9427 174.282 96.7885 167.986 112.427C166.439 116.415 160.064 123.417 160.102 126.491C160.1 127.926 164.831 141.35 165.781 143.519C168.222 149.055 173.548 157.756 179.018 160.562C185.089 163.625 188.091 163.855 190.94 157.152C196.244 144.502 196.894 123.14 194.475 109.665C191.256 91.669 181.423 72.2833 167.358 60.4742Z" fill="#523C14"/>
<path d="M155.867 52.9922C155.546 52.0449 156.363 51.4979 154.278 51.418C148.977 66.5571 135.705 74.2955 125.478 84.956C120.159 90.5182 113.396 97.8952 114.405 105.919C115.348 113.829 120.096 112.9 124.075 117.699C127.352 121.544 127.726 127.292 130.55 131.399C146.933 122.771 159.879 109.106 161.212 89.8407C161.663 81.7296 158.383 60.7496 155.867 52.9922Z" fill="#523C14"/>
<path d="M76.6479 145.386C74.8293 152.174 72.776 160.908 77.9267 166.691C83.0873 169.223 100.647 157.273 104.88 153.621C107.724 151.224 122.798 136.407 121.098 133.462C117.693 131.88 116.956 135.703 113.739 136.277C110.32 136.892 105.652 135.737 103.022 133.405C101.475 132.033 100.675 128.947 99.0676 128.517C96.5909 127.757 93.7886 130.357 89.4493 128.332C81.6399 124.613 85.61 116.583 77.1259 114.31C71.946 112.922 71.3063 114.952 67.8182 118.325C52.065 133.535 46.1193 155.01 76.6479 145.386Z" fill="#523C14"/>
<path d="M140.835 31.9261C128.934 23.4726 109.944 25.7548 97.9585 32.9766C93.9713 35.3541 78.3236 46.955 87.956 50.3018C89.7182 50.8697 92.8217 50.3612 93.6366 51.2495C94.4754 52.0486 94.6809 54.4967 95.7573 55.838C108.066 72.0583 131.461 61.1932 142.036 48.5202C148.126 41.1543 149.523 38.0828 140.835 31.9261Z" fill="#523C14"/>
<path d="M48.3242 31.7389C41.471 35.1671 20.7516 49.6207 24.8144 58.7497C28.4259 66.705 48.3051 67.5328 55.9633 68.2447C56.8359 65.7027 57.1966 62.9277 58.3371 60.4575C60.1284 56.6301 64.425 54.5269 65.7027 51.902C68.8785 45.7654 66.6906 42.499 74.1707 37.803C79.4514 34.5277 82.2473 32.3096 87.1707 28.9386C90.0974 26.9469 93.5406 26.2423 96.3365 24.0242C80.915 20.8492 62.3703 24.6863 48.3242 31.7389Z" fill="#523C14"/>
<path d="M49.9538 -5.0608C57.0599 -0.859468 64.3891 6.08177 72.5399 8.17007C79.5298 9.94729 90.8723 7.62624 98.9228 9.01761C109.432 10.8765 119.255 14.9441 128.617 19.6543C115.464 -7.70414 74.4576 -36.4956 49.9538 -5.0608Z" fill="#523C14"/>
<path d="M54.9847 114.79C57.2908 113.685 64.5444 109.119 65.964 107.394C68.988 103.61 65.3252 98.7036 66.367 94.1011C60.6817 92.0991 56.7573 86.7402 57.7115 80.6785C57.97 78.6419 60.707 75.9294 58.4217 74.4556C48.9646 74.0273 33.8438 78.3033 27.373 85.6628C17.8607 96.5147 25.2428 98.9713 36.5994 99.8128C33.0681 104.418 34.7208 116.826 41.1574 118.168C44.331 118.827 51.999 116.287 54.9847 114.79Z" fill="#523C14"/>
<path d="M118.649 171.187C124.11 171.885 132.349 164.712 133.283 165.154C137.095 170.578 136.928 180.488 145.612 180.231C151.02 180.052 154.175 165.774 154.854 161.457C155.406 157.968 154.185 133.232 152.154 132.593C142.274 137.316 130.914 139.345 123.477 148.168C120.226 152.083 108.377 169.871 118.649 171.187Z" fill="#523C14"/>
<path d="M162.045 39.2372L160.212 42.862C167.723 46.9805 175.041 53.2487 180.811 59.5806C185.016 64.2489 194.598 79.9299 198.353 81.9891C211.548 89.5449 217.389 80.9637 212.175 68.2718C204.093 48.7809 181.698 40.1958 162.045 39.2372Z" fill="#523C14"/>
<path d="M93.9939 102.076C96.5325 105.819 104.595 102.524 101.021 97.6417C97.5128 92.8729 91.7407 98.6967 93.9939 102.076Z" fill="#523C14"/>
<path d="M109.715 83.4119C111.384 82.9017 114.59 76.2947 107.849 75.7327C101.042 75.0575 104.079 85.1561 109.715 83.4119Z" fill="#523C14"/>
<path d="M93.1536 84.1436C96.3486 76.8636 82.268 77.9724 86.0184 84.3376C87.5221 86.942 91.7802 87.1258 93.1536 84.1436Z" fill="#523C14"/>
<path d="M80.1774 96.8443C75.889 97.131 76.7273 103.29 80.7526 103.986C86.2067 105.064 86.3063 96.4764 80.1774 96.8443Z" fill="#523C14"/>
<path d="M73.1281 65.2819C77.1807 63.0176 73.0251 56.7353 68.8593 59.0649C65.0332 61.1985 68.42 67.8491 73.1281 65.2819Z" fill="#523C14"/>
<path d="M68.2159 81.4813C69.0705 84.0076 76.6937 84.1358 75.6575 79.0722C74.6452 73.9193 66.5785 76.1609 68.2159 81.4813Z" fill="#523C14"/>
<path d="M84.3957 62.1735C81.0926 65.2129 85.784 71.6387 89.6118 68.0699C93.5768 64.3463 86.56 60.169 84.3957 62.1735Z" fill="#523C14"/>
<path d="M91.2963 111.788C86.419 116.416 97.6333 121.718 97.5461 114.898C97.5081 111.825 92.5723 110.598 91.2963 111.788Z" fill="#523C14"/>
<path d="M112.839 127.132C117.212 125.815 115.195 119.053 110.101 120.559C107.283 121.432 108.15 128.556 112.839 127.132Z" fill="#523C14"/>
</g>
</svg>
