<svg width="167" height="148" viewBox="0 0 167 148" fill="none" xmlns="http://www.w3.org/2000/svg">
<rect x="14" width="120" height="120" rx="60" fill="#F2EBD9"/>
<circle cx="3" cy="17" r="2" fill="#FFDE65"/>
<circle cx="132" cy="11" r="2" fill="#2DD4BF"/>
<circle cx="143.5" cy="20.5" r="3.5" fill="#E5E7EB"/>
<circle cx="2" cy="109" r="2" fill="#FF8092"/>
<g filter="url(#filter0_d_1_1150)">
<rect x="34" y="20" width="80" height="80" rx="40" fill="#E4D7B4"/>
</g>
<g filter="url(#filter1_d_1_1150)">
<circle cx="116.5" cy="95" r="20" fill="#35C220"/>
<circle cx="116.5" cy="95" r="20" stroke="white" stroke-width="3"/>
</g>
<g clip-path="url(#clip0_1_1150)">
<path d="M112.3 104.425C111.966 104.425 111.635 104.359 111.326 104.231C111.017 104.103 110.736 103.916 110.5 103.679L104.939 98.1211L107.061 96.0001L112.3 101.239L125.939 87.6001L128.061 89.7211L114.1 103.679C113.864 103.916 113.583 104.103 113.274 104.231C112.965 104.359 112.634 104.425 112.3 104.425Z" fill="white"/>
</g>
<path d="M73.5 84C86.7518 84 97.5 73.2518 97.5 60C97.5 46.7482 86.7518 36 73.5 36C60.2482 36 49.5 46.7482 49.5 60C49.5 73.2518 60.2482 84 73.5 84Z" fill="#F6F7F9"/>
<g clip-path="url(#clip1_1_1150)">
<path d="M66.9858 68.4784H72.3078L75.8268 71.9934C76.016 72.1836 76.2408 72.3345 76.4884 72.4374C76.7361 72.5404 77.0016 72.5934 77.2698 72.5934C77.4463 72.5931 77.622 72.5706 77.7928 72.5264C78.1381 72.4393 78.4543 72.2627 78.7095 72.0144C78.9648 71.7662 79.1501 71.4551 79.2468 71.1124L85.4538 50.0034L66.9858 68.4784Z" fill="#824C08"/>
<path d="M65.5519 67.0791L84.0369 48.5911L62.9429 54.8121C62.5994 54.9097 62.2875 55.0955 62.038 55.351C61.7885 55.6064 61.6101 55.9227 61.5205 56.2684C61.431 56.614 61.4334 56.9771 61.5274 57.3216C61.6215 57.666 61.804 57.9799 62.0569 58.2321L65.5519 61.7241V67.0791Z" fill="#824C08"/>
</g>
<defs>
<filter id="filter0_d_1_1150" x="22" y="12" width="112" height="112" filterUnits="userSpaceOnUse" color-interpolation-filters="sRGB">
<feFlood flood-opacity="0" result="BackgroundImageFix"/>
<feColorMatrix in="SourceAlpha" type="matrix" values="0 0 0 0 0 0 0 0 0 0 0 0 0 0 0 0 0 0 127 0" result="hardAlpha"/>
<feOffset dx="4" dy="8"/>
<feGaussianBlur stdDeviation="8"/>
<feComposite in2="hardAlpha" operator="out"/>
<feColorMatrix type="matrix" values="0 0 0 0 0.0588235 0 0 0 0 0.0901962 0 0 0 0 0.164706 0 0 0 0.04 0"/>
<feBlend mode="normal" in2="BackgroundImageFix" result="effect1_dropShadow_1_1150"/>
<feBlend mode="normal" in="SourceGraphic" in2="effect1_dropShadow_1_1150" result="shape"/>
</filter>
<filter id="filter1_d_1_1150" x="70.8" y="51.5" width="95.8" height="95.8" filterUnits="userSpaceOnUse" color-interpolation-filters="sRGB">
<feFlood flood-opacity="0" result="BackgroundImageFix"/>
<feColorMatrix in="SourceAlpha" type="matrix" values="0 0 0 0 0 0 0 0 0 0 0 0 0 0 0 0 0 0 127 0" result="hardAlpha"/>
<feOffset dx="2.2" dy="4.4"/>
<feGaussianBlur stdDeviation="13.2"/>
<feComposite in2="hardAlpha" operator="out"/>
<feColorMatrix type="matrix" values="0 0 0 0 0.0588235 0 0 0 0 0.0901962 0 0 0 0 0.164706 0 0 0 0.08 0"/>
<feBlend mode="normal" in2="BackgroundImageFix" result="effect1_dropShadow_1_1150"/>
<feBlend mode="normal" in="SourceGraphic" in2="effect1_dropShadow_1_1150" result="shape"/>
</filter>
<clipPath id="clip0_1_1150">
<rect width="24" height="24" fill="white" transform="translate(104.5 83)"/>
</clipPath>
<clipPath id="clip1_1_1150">
<rect width="24" height="24" fill="white" transform="translate(61.4648 48.5789)"/>
</clipPath>
</defs>
</svg>
