<svg width="24" height="24" viewBox="0 0 24 24" fill="none" xmlns="http://www.w3.org/2000/svg">
<path d="M15.5244 2.5C15.6408 3.77527 16.1984 4.97578 17.1113 5.88867C18.0242 6.80157 19.2247 7.35918 20.5 7.47559L20.5 9.48145C18.9746 9.38127 17.5119 8.81741 16.3135 7.85547L15.5 7.20215L15.5 15.5L15.4951 15.7334C15.4495 16.8974 15.0659 18.0247 14.3887 18.9766C13.6663 19.9919 12.6459 20.7571 11.4688 21.166C10.2917 21.5749 9.01652 21.6076 7.82031 21.2588C6.62397 20.9098 5.56572 20.1964 4.79297 19.2188C4.02028 18.2411 3.57099 17.0473 3.50781 15.8027C3.44463 14.5582 3.77067 13.3243 4.44043 12.2734C5.11016 11.2228 6.09047 10.4067 7.24512 9.93848C8.27845 9.51943 9.40558 9.39799 10.5 9.58301L10.5 11.6289C9.91415 11.4775 9.29853 11.4577 8.69922 11.5801C7.85024 11.7535 7.08047 12.1981 6.50586 12.8467C5.93117 13.4954 5.58243 14.3139 5.5127 15.1777C5.44305 16.0414 5.6561 16.9043 6.11914 17.6367C6.58229 18.3692 7.27079 18.9318 8.08105 19.2393C8.89134 19.5466 9.77985 19.5828 10.6123 19.3418C11.4448 19.1008 12.1765 18.5951 12.6973 17.9023C13.2179 17.2096 13.4998 16.3666 13.5 15.5L13.5 2.5L15.5244 2.5Z" fill="#E5E3DC" stroke="#E5E3DC"/>
</svg>
