<svg width="28" height="28" viewBox="0 0 28 28" fill="none" xmlns="http://www.w3.org/2000/svg">
<g clip-path="url(#clip0_503_929)">
<mask id="path-1-inside-1_503_929" fill="white">
<path fill-rule="evenodd" clip-rule="evenodd" d="M12.7579 0.0934245H15.2314C18.6286 0.0934245 20.6138 0.592381 22.376 1.53721C24.1383 2.48204 25.529 3.86213 26.4632 5.62442C27.408 7.38669 27.907 9.37189 27.907 12.769V15.232C27.907 18.6291 27.408 20.6143 26.4632 22.3765C25.5184 24.1388 24.1383 25.5296 22.376 26.4638C20.6138 27.4086 18.6286 27.9076 15.2314 27.9076H12.7685C9.37138 27.9076 7.38618 27.4086 5.62392 26.4638C3.86167 25.5189 2.47096 24.1388 1.53675 22.3765C0.591923 20.6143 0.0929718 18.6291 0.0929718 15.232V12.769C0.0929718 9.37189 0.591923 7.38669 1.53675 5.62442C2.48158 3.86213 3.86167 2.47143 5.62392 1.53721C7.3756 0.592381 9.37138 0.0934245 12.7579 0.0934245ZM4.35624 24.41C5.65707 24.5538 7.28342 24.1828 8.4382 23.6222C13.4526 26.3938 21.291 26.2614 26.0357 23.225C26.2197 22.949 26.3916 22.6619 26.5512 22.3643C27.4995 20.5956 28.0002 18.6032 28.0002 15.1937V12.7218C28.0002 9.31224 27.4995 7.31982 26.5512 5.55113C25.6136 3.78244 24.2178 2.39732 22.4491 1.44904C20.6804 0.500774 18.688 0 15.2785 0H12.7959C9.89207 0 8.007 0.365542 6.42315 1.0634C6.33657 1.14093 6.25162 1.21978 6.16846 1.29996C1.52171 5.77937 1.16849 15.4892 5.10877 20.7638C5.11316 20.7716 5.11803 20.7794 5.12338 20.7874C5.73071 21.6824 5.14469 23.2486 4.22838 24.1649C4.07922 24.3034 4.13249 24.3887 4.35624 24.41Z"/>
</mask>
<path fill-rule="evenodd" clip-rule="evenodd" d="M12.7579 0.0934245H15.2314C18.6286 0.0934245 20.6138 0.592381 22.376 1.53721C24.1383 2.48204 25.529 3.86213 26.4632 5.62442C27.408 7.38669 27.907 9.37189 27.907 12.769V15.232C27.907 18.6291 27.408 20.6143 26.4632 22.3765C25.5184 24.1388 24.1383 25.5296 22.376 26.4638C20.6138 27.4086 18.6286 27.9076 15.2314 27.9076H12.7685C9.37138 27.9076 7.38618 27.4086 5.62392 26.4638C3.86167 25.5189 2.47096 24.1388 1.53675 22.3765C0.591923 20.6143 0.0929718 18.6291 0.0929718 15.232V12.769C0.0929718 9.37189 0.591923 7.38669 1.53675 5.62442C2.48158 3.86213 3.86167 2.47143 5.62392 1.53721C7.3756 0.592381 9.37138 0.0934245 12.7579 0.0934245ZM4.35624 24.41C5.65707 24.5538 7.28342 24.1828 8.4382 23.6222C13.4526 26.3938 21.291 26.2614 26.0357 23.225C26.2197 22.949 26.3916 22.6619 26.5512 22.3643C27.4995 20.5956 28.0002 18.6032 28.0002 15.1937V12.7218C28.0002 9.31224 27.4995 7.31982 26.5512 5.55113C25.6136 3.78244 24.2178 2.39732 22.4491 1.44904C20.6804 0.500774 18.688 0 15.2785 0H12.7959C9.89207 0 8.007 0.365542 6.42315 1.0634C6.33657 1.14093 6.25162 1.21978 6.16846 1.29996C1.52171 5.77937 1.16849 15.4892 5.10877 20.7638C5.11316 20.7716 5.11803 20.7794 5.12338 20.7874C5.73071 21.6824 5.14469 23.2486 4.22838 24.1649C4.07922 24.3034 4.13249 24.3887 4.35624 24.41Z" fill="#E5E3DC"/>
<path d="M22.376 1.53721L22.1988 1.86771V1.86771L22.376 1.53721ZM26.4632 5.62442L26.1319 5.80006L26.1327 5.80162L26.4632 5.62442ZM22.376 26.4638L22.2004 26.1324L22.1988 26.1333L22.376 26.4638ZM5.62392 26.4638L5.44672 26.7943H5.44672L5.62392 26.4638ZM1.53675 22.3765L1.86808 22.2009L1.86725 22.1993L1.53675 22.3765ZM1.53675 5.62442L1.86725 5.80162L1.86725 5.80161L1.53675 5.62442ZM5.62392 1.53721L5.79956 1.86854L5.80194 1.86726L5.62392 1.53721ZM4.35624 24.41L4.39745 24.0372L4.39175 24.0366L4.35624 24.41ZM8.4382 23.6222L8.6196 23.294L8.44938 23.1999L8.27442 23.2849L8.4382 23.6222ZM26.0357 23.225L26.2378 23.5409L26.3041 23.4985L26.3477 23.433L26.0357 23.225ZM26.5512 22.3643L26.2207 22.1871L26.2207 22.1871L26.5512 22.3643ZM26.5512 5.55113L26.2198 5.72677L26.2207 5.72833L26.5512 5.55113ZM22.4491 1.44904L22.6263 1.11855L22.6263 1.11855L22.4491 1.44904ZM6.42315 1.0634L6.27194 0.720235L6.21739 0.744271L6.17299 0.784037L6.42315 1.0634ZM6.16846 1.29996L6.42872 1.56994L6.42873 1.56992L6.16846 1.29996ZM5.10877 20.7638L5.43529 20.5794L5.42352 20.5585L5.40919 20.5394L5.10877 20.7638ZM5.12338 20.7874L4.81231 20.9968L4.81308 20.9979L5.12338 20.7874ZM4.22838 24.1649L4.48376 24.4399L4.49354 24.4301L4.22838 24.1649ZM12.7579 0.0934245V0.468424H15.2314V0.0934245V-0.281576H12.7579V0.0934245ZM15.2314 0.0934245V0.468424C18.5869 0.468424 20.5064 0.960317 22.1988 1.86771L22.376 1.53721L22.5532 1.20672C20.7211 0.224445 18.6703 -0.281576 15.2314 -0.281576V0.0934245ZM22.376 1.53721L22.1988 1.86771C23.897 2.77818 25.2334 4.10507 26.1319 5.80006L26.4632 5.62442L26.7945 5.44879C25.8247 3.6192 24.3796 2.1859 22.5532 1.20672L22.376 1.53721ZM26.4632 5.62442L26.1327 5.80162C27.0401 7.49405 27.532 9.41359 27.532 12.769H27.907H28.282C28.282 9.33018 27.776 7.27933 26.7937 5.44723L26.4632 5.62442ZM27.907 12.769H27.532V15.232H27.907H28.282V12.769H27.907ZM27.907 15.232H27.532C27.532 18.5874 27.0401 20.5069 26.1327 22.1993L26.4632 22.3765L26.7937 22.5537C27.776 20.7216 28.282 18.6708 28.282 15.232H27.907ZM26.4632 22.3765L26.1327 22.1993C25.2222 23.8975 23.8954 25.2339 22.2004 26.1324L22.376 26.4638L22.5517 26.7951C24.3812 25.8252 25.8145 24.3801 26.7937 22.5537L26.4632 22.3765ZM22.376 26.4638L22.1988 26.1333C20.5064 27.0407 18.5869 27.5326 15.2314 27.5326V27.9076V28.2826C18.6703 28.2826 20.7211 27.7765 22.5532 26.7943L22.376 26.4638ZM15.2314 27.9076V27.5326H12.7685V27.9076V28.2826H15.2314V27.9076ZM12.7685 27.9076V27.5326C9.41308 27.5326 7.49354 27.0407 5.80111 26.1333L5.62392 26.4638L5.44672 26.7943C7.27882 27.7765 9.32967 28.2826 12.7685 28.2826V27.9076ZM5.62392 26.4638L5.80111 26.1333C4.10294 25.2228 2.76661 23.8959 1.86808 22.2009L1.53675 22.3765L1.20543 22.5522C2.17531 24.3817 3.6204 25.8151 5.44672 26.7943L5.62392 26.4638ZM1.53675 22.3765L1.86725 22.1993C0.959859 20.5069 0.467972 18.5874 0.467972 15.232H0.0929718H-0.282028C-0.282028 18.6708 0.223987 20.7216 1.20626 22.5537L1.53675 22.3765ZM0.0929718 15.232H0.467972V12.769H0.0929718H-0.282028V15.232H0.0929718ZM0.0929718 12.769H0.467972C0.467972 9.41359 0.959859 7.49405 1.86725 5.80162L1.53675 5.62442L1.20626 5.44723C0.223987 7.27933 -0.282028 9.33018 -0.282028 12.769H0.0929718ZM1.53675 5.62442L1.86725 5.80161C2.77773 4.1034 4.10461 2.76708 5.79956 1.86854L5.62392 1.53721L5.44827 1.20589C3.61873 2.17578 2.18544 3.62087 1.20626 5.44723L1.53675 5.62442ZM5.62392 1.53721L5.80194 1.86726C7.4831 0.960465 9.41266 0.468424 12.7579 0.468424V0.0934245V-0.281576C9.3301 -0.281576 7.26809 0.224297 5.44589 1.20716L5.62392 1.53721ZM4.35624 24.41L4.31504 24.7827C5.70056 24.9359 7.398 24.544 8.60197 23.9595L8.4382 23.6222L8.27442 23.2849C7.16884 23.8216 5.61358 24.1717 4.39745 24.0372L4.35624 24.41ZM8.4382 23.6222L8.25679 23.9504C10.8337 25.3747 14.1153 26.0438 17.3459 25.9765C20.5759 25.9093 23.7936 25.1051 26.2378 23.5409L26.0357 23.225L25.8336 22.9091C23.5332 24.3813 20.4593 25.1615 17.3303 25.2267C14.2019 25.2918 11.0571 24.6413 8.6196 23.294L8.4382 23.6222ZM26.0357 23.225L26.3477 23.433C26.5385 23.1468 26.7166 22.8495 26.8817 22.5415L26.5512 22.3643L26.2207 22.1871C26.0667 22.4744 25.9009 22.7511 25.7237 23.017L26.0357 23.225ZM26.5512 22.3643L26.8817 22.5415C27.8674 20.703 28.3752 18.6449 28.3752 15.1937H28.0002H27.6252C27.6252 18.5615 27.1315 20.4883 26.2207 22.1871L26.5512 22.3643ZM28.0002 15.1937H28.3752V12.7218H28.0002H27.6252V15.1937H28.0002ZM28.0002 12.7218H28.3752C28.3752 9.27054 27.8674 7.21245 26.8817 5.37393L26.5512 5.55113L26.2207 5.72833C27.1315 7.42718 27.6252 9.35394 27.6252 12.7218H28.0002ZM26.5512 5.55113L26.8825 5.37549C25.9092 3.53951 24.4591 2.10118 22.6263 1.11855L22.4491 1.44904L22.2719 1.77954C23.9766 2.69346 25.3179 4.02538 26.2199 5.72677L26.5512 5.55113ZM22.4491 1.44904L22.6263 1.11855C20.7878 0.132838 18.7297 -0.375 15.2785 -0.375V0V0.375C18.6463 0.375 20.5731 0.868709 22.2719 1.77954L22.4491 1.44904ZM15.2785 0V-0.375H12.7959V0V0.375H15.2785V0ZM12.7959 0V-0.375C9.86007 -0.375 7.91889 -0.00542572 6.27194 0.720235L6.42315 1.0634L6.57435 1.40657C8.0951 0.73651 9.92407 0.375 12.7959 0.375V0ZM6.42315 1.0634L6.17299 0.784037C6.08309 0.864535 5.99476 0.94652 5.90818 1.02999L6.16846 1.29996L6.42873 1.56992C6.50848 1.49304 6.59005 1.41732 6.67331 1.34276L6.42315 1.0634ZM6.16846 1.29996L5.9082 1.02997C3.49509 3.35618 2.22352 7.00706 2.04392 10.7155C1.86423 14.4258 2.77353 18.2644 4.80834 20.9882L5.10877 20.7638L5.40919 20.5394C3.50373 17.9886 2.6195 14.335 2.79304 10.7518C2.96666 7.16689 4.19508 3.72314 6.42872 1.56994L6.16846 1.29996ZM5.10877 20.7638L4.78224 20.9482C4.79189 20.9653 4.802 20.9815 4.81231 20.9968L5.12338 20.7874L5.43445 20.5779C5.43406 20.5774 5.43443 20.5779 5.43529 20.5794L5.10877 20.7638ZM5.12338 20.7874L4.81308 20.9979C5.02655 21.3125 5.05762 21.7944 4.88802 22.3605C4.72122 22.9173 4.37872 23.4842 3.96322 23.8997L4.22838 24.1649L4.49354 24.4301C4.99435 23.9293 5.40301 23.2549 5.60647 22.5758C5.80712 21.906 5.82754 21.1572 5.43368 20.5768L5.12338 20.7874ZM4.22838 24.1649L3.97318 23.8901C3.91905 23.9404 3.85372 24.0118 3.81187 24.105C3.76543 24.2085 3.74101 24.361 3.82367 24.5117C3.89592 24.6435 4.01368 24.7042 4.08608 24.7321C4.16419 24.7622 4.24671 24.7762 4.32074 24.7833L4.35624 24.41L4.39175 24.0366C4.3539 24.033 4.34585 24.0284 4.3557 24.0322C4.35984 24.0338 4.43166 24.0606 4.48127 24.1511C4.54129 24.2605 4.51753 24.3644 4.49606 24.4123C4.47918 24.4498 4.46313 24.4587 4.48358 24.4397L4.22838 24.1649Z" fill="#E5E3DC" mask="url(#path-1-inside-1_503_929)"/>
<path d="M11.5154 9.52002H6.06939V10.6878H9.84866L6.12242 15.3058C6.00566 15.4756 5.92076 15.6349 5.92076 15.9958V16.2931H11.0589C11.3137 16.2931 11.526 16.0808 11.526 15.826V15.1996H7.55563L11.0589 10.8045C11.112 10.7409 11.2075 10.6241 11.25 10.571L11.2712 10.5392C11.4729 10.2419 11.5154 9.98712 11.5154 9.67928V9.52002Z" fill="#E5E3DC"/>
<path d="M18.4473 16.2931H19.2223V9.52002H18.0545V15.9003C18.0545 16.1126 18.2244 16.2931 18.4473 16.2931Z" fill="#E5E3DC"/>
<path d="M14.4558 11.0278C12.9908 11.0278 11.8018 12.2168 11.8018 13.6818C11.8018 15.1469 12.9908 16.3358 14.4558 16.3358C15.9209 16.3358 17.1099 15.1469 17.1099 13.6818C17.1205 12.2168 15.9315 11.0278 14.4558 11.0278ZM14.4558 15.2424C13.596 15.2424 12.8953 14.5417 12.8953 13.6818C12.8953 12.822 13.596 12.1213 14.4558 12.1213C15.3157 12.1213 16.0164 12.822 16.0164 13.6818C16.0164 14.5417 15.3264 15.2424 14.4558 15.2424Z" fill="#E5E3DC"/>
<path d="M22.6725 10.9849C21.1969 10.9849 19.9973 12.1845 19.9973 13.6601C19.9973 15.1358 21.1969 16.3354 22.6725 16.3354C24.1481 16.3354 25.3478 15.1358 25.3478 13.6601C25.3478 12.1845 24.1481 10.9849 22.6725 10.9849ZM22.6725 15.2419C21.802 15.2419 21.1014 14.5413 21.1014 13.6707C21.1014 12.8002 21.802 12.0995 22.6725 12.0995C23.5431 12.0995 24.2437 12.8002 24.2437 13.6707C24.2437 14.5413 23.5431 15.2419 22.6725 15.2419Z" fill="#E5E3DC"/>
<path d="M16.4955 16.2927H17.1218V11.1758H16.0284V15.8363C16.0284 16.0804 16.2407 16.2927 16.4955 16.2927Z" fill="#E5E3DC"/>
<path d="M12.758 0.187012H15.2316C18.618 0.187031 20.5866 0.684312 22.3313 1.61963C24.0775 2.55587 25.4548 3.92299 26.3801 5.66846H26.3811C27.3165 7.41323 27.8137 9.38242 27.8137 12.769V15.2319C27.8137 18.6185 27.3165 20.5877 26.3811 22.3325C25.4449 24.0786 24.0775 25.4551 22.3322 26.3804L22.3313 26.3813C20.5866 27.3166 18.6179 27.8139 15.2316 27.814H12.7688C9.38213 27.814 7.41294 27.3168 5.66817 26.3813C3.92194 25.4451 2.54463 24.078 1.61934 22.3325C0.68388 20.5877 0.186736 18.6185 0.186722 15.2319V12.769L0.192581 12.1499C0.250654 9.13682 0.74236 7.30416 1.61934 5.66846C2.55514 3.92304 4.13092 2.37739 5.87715 1.45166H5.87813C7.60963 0.51778 9.37776 0.187012 12.758 0.187012Z" stroke="#E5E3DC" stroke-width="0.1875"/>
</g>
<defs>
<clipPath id="clip0_503_929">
<rect width="28" height="28" fill="white"/>
</clipPath>
</defs>
</svg>
